<?xml version="1.0" encoding="utf-8"?>
<!-- Generator: Adobe Illustrator 23.0.1, SVG Export Plug-In . SVG Version: 6.00 Build 0)  -->
<svg version="1.1" id="Layer_1" xmlns="http://www.w3.org/2000/svg" xmlns:xlink="http://www.w3.org/1999/xlink" x="0px" y="0px"
	 viewBox="0 0 47.3 66.2" style="enable-background:new 0 0 47.3 66.2;" xml:space="preserve">
<style type="text/css">
	.st0{fill:#BBBDBF;}
	.st1{fill:#D0D2D3;}
	.st2{fill:#FFFFFF;}
</style>
<g>
	<g>
		<path class="st0" d="M24.2,50.2l-3.7,5.6l-2.5,10.4h13.6C25,60.1,24.2,50.2,24.2,50.2z"/>
		<path class="st1" d="M47.3,13.6c0-0.7-0.4-1.2-0.9-1.5c-0.3-0.5-0.8-0.9-1.5-0.9c-0.7,0-1.2,0.4-1.5,0.9c-0.5,0.3-0.9,0.8-0.9,1.5
			c0,0.7,0.4,1.2,0.9,1.5c0.3,0.5,0.8,0.9,1.5,0.9c0.7,0,1.2-0.4,1.5-0.9C46.9,14.8,47.3,14.2,47.3,13.6z"/>
		<path class="st2" d="M43.7,2c0,0-0.6,0-1.2,0.3c0.4-0.6,0.3-1.2,0.3-1.2c0-0.6-0.5-1.1-1.1-1.1c-0.6,0-1.1,0.5-1.1,1.1
			c0,0,0,0.6,0.3,1.2C40.3,2,39.7,2,39.7,2c-0.6,0-1.1,0.5-1.1,1.1c0,0.6,0.5,1.1,1.1,1.1c0,0,0.6,0,1.3-0.3
			c-0.4,0.6-0.3,1.2-0.3,1.2l0,0c0,0.6,0.5,1.1,1.1,1.1c0.6,0,1.1-0.5,1.1-1.1c0,0,0-0.6-0.3-1.2c0.6,0.4,1.2,0.3,1.2,0.3l0,0
			c0.6,0,1.1-0.5,1.1-1.1C44.8,2.5,44.4,2,43.7,2z"/>
		<path class="st2" d="M33.1,3.3c-2.2-1.4-4.2-1-4.2-1l-1.3,1.7c0,0,0,0,0,0c-1.1,1.5-3.4,1.6-3.8,1.6h-1.7L8.7,25L7,27.5
			c0,0,0,0,0,0c-1.8,2.7-2.4,5-2.4,5l0,0c-0.2,0.9-0.5,1.7-1.6,2.4c-1.7,1-3.7,1.9-2.8,3.1l0.4,0.4l0,0c0.3,0.2,0.6,0.6,0.8,0.9
			c0,0,0.1,0.1,0.1,0.8c0,0,0,0,0,0l0.2,5.2c0,0,0.1,2.5,1.9,3.1c0,0,0,0,0,0C6.3,49,8,49.8,8.9,51.9c1,2.3,1.5,4.7,4.2,6.7l0,0
			l1.4,7.6h3.3l2.5-10.4l3.7-5.6l10.4-32.8c0.3-1.1,0-2.6-0.2-3.2c0-0.1,0-0.1-0.1-0.2c0,0,0,0,0,0l0,0c-0.6-2.4,0.7-4,1.7-5
			c1.7-1.5,4.8-1.5,4.8-1.5C39,7.3,35.3,4.6,33.1,3.3z"/>
		<polygon class="st0" points="38.4,24.4 36.1,20.3 32.7,22.3 32.7,18.4 28,18.4 28,22.3 24.7,20.3 22.4,24.4 25.7,26.3 22.4,28.2 
			24.7,32.3 28,30.4 28,34.2 32.7,34.2 32.7,30.4 36,32.3 38.4,28.2 35.1,26.3 		"/>
		<path class="st1" d="M23.1,51.8l-2.7,4.1l-2.5,10.4H27C22.9,60.5,23.1,51.8,23.1,51.8z"/>
	</g>
</g>
</svg>
