<svg id="Layer_1" data-name="Layer 1" xmlns="http://www.w3.org/2000/svg" viewBox="0 0 15.33 15.33"><defs><style>.cls-1{fill:#27aae1;}.cls-2{fill:#fff;}</style></defs><title>arrow</title><path class="cls-1" d="M15.33,7.67a5.35,5.35,0,0,0-2.94-4.73,5.27,5.27,0,0,0-9.46,0,5.28,5.28,0,0,0,0,9.46,5.27,5.27,0,0,0,9.45,0A5.35,5.35,0,0,0,15.33,7.67Z"/><path class="cls-2" d="M10.74,9.77a1.47,1.47,0,0,1-1.06-.44l-2-2-2,2a1.49,1.49,0,0,1-2.12,0,1.51,1.51,0,0,1,0-2.12L6.6,4.13a1.51,1.51,0,0,1,2.12,0L11.8,7.21a1.49,1.49,0,0,1,0,2.12A1.45,1.45,0,0,1,10.74,9.77Z"/></svg>