<svg id="Layer_1" data-name="Layer 1" xmlns="http://www.w3.org/2000/svg" viewBox="0 0 84.83 118.86"><defs><style>.cls-1{fill:#00558f;}.cls-2{fill:#27aae1;}.cls-3{fill:#bdbec0;}.cls-4{fill:#2b8aaf;}.cls-5{fill:#8cbf44;}.cls-6{fill:#00679f;}</style></defs><title>TIS-img</title><path class="cls-1" d="M43.36,90.12l-6.67,10-4.56,18.69H56.55C44.79,107.94,43.36,90.12,43.36,90.12Z"/><path class="cls-2" d="M84.83,24.39a3,3,0,0,0-1.66-2.68,3,3,0,0,0-5.35,0,3,3,0,0,0,0,5.36,3,3,0,0,0,5.35,0A3.06,3.06,0,0,0,84.83,24.39Z"/><path class="cls-3" d="M78.52,3.62a4.7,4.7,0,0,0-2.24.6A4.78,4.78,0,0,0,76.87,2a2,2,0,0,0-4,0,4.73,4.73,0,0,0,.6,2.25,4.73,4.73,0,0,0-2.25-.6,2,2,0,0,0,0,4A4.73,4.73,0,0,0,73.52,7a4.73,4.73,0,0,0-.6,2.25h0a2,2,0,0,0,4,0A4.73,4.73,0,0,0,76.27,7a4.73,4.73,0,0,0,2.25.6h0a2,2,0,0,0,0-3.95Z"/><path class="cls-4" d="M59.44,5.84A11.48,11.48,0,0,0,51.87,4L49.6,7h0c-2.06,2.74-6.07,2.89-6.79,2.9h-3.1L15.63,45l-3,4.33h0a30.5,30.5,0,0,0-4.36,9h0a5.85,5.85,0,0,1-2.84,4.31c-3,1.83-6.64,3.41-5,5.54l.69.63h0A6.34,6.34,0,0,1,2.44,70.4a3.61,3.61,0,0,1,.21,1.4h0l.44,9.38s.18,4.47,3.5,5.53h0c4.7,1.28,7.77,2.67,9.29,6.39,1.73,4.21,2.69,8.36,7.6,12.07l.08.06,2.57,13.63h6l4.56-18.69,6.67-10,18.69-58.9c.62-1.94-.06-4.73-.35-5.74,0-.11-.07-.22-.09-.32l0-.09h0a9,9,0,0,1,3.1-8.9c3-2.74,8.64-2.73,8.64-2.73C70,13.17,63.43,8.35,59.44,5.84Z"/><polygon class="cls-5" points="68.91 43.8 64.7 36.5 58.74 39.95 58.74 33.06 50.31 33.06 50.31 39.95 44.35 36.52 40.14 43.81 46.09 47.24 40.13 50.69 44.34 57.99 50.31 54.55 50.31 61.43 58.74 61.43 58.74 54.54 64.69 57.98 68.9 50.68 62.95 47.25 68.91 43.8"/><path class="cls-6" d="M41.52,92.9l-4.83,7.27-4.56,18.69H48.45C41.12,108.51,41.52,92.9,41.52,92.9Z"/></svg>