<svg id="Layer_1" data-name="Layer 1" xmlns="http://www.w3.org/2000/svg" viewBox="0 0 379.32 121.58"><defs><style>.cls-1{fill:#231f20;}.cls-2{fill:#00558f;}.cls-3{fill:#27aae1;}.cls-4{fill:#bdbec0;}.cls-5{fill:#2b8aaf;}.cls-6{fill:#8cbf44;}.cls-7{fill:#00679f;}</style></defs><title>tis-logo-full</title><path class="cls-1" d="M97.75,80a5.19,5.19,0,0,0-1.47-1,4.11,4.11,0,0,0-1.69-.36,2.37,2.37,0,0,0-.69.11,2,2,0,0,0-.66.32,1.87,1.87,0,0,0-.5.51,1.29,1.29,0,0,0-.19.72,1.21,1.21,0,0,0,.22.75,2.05,2.05,0,0,0,.53.53A3.44,3.44,0,0,0,94,82l.69.25,1.21.39a12.34,12.34,0,0,1,1.78.75,5.52,5.52,0,0,1,1.43,1.07,4.53,4.53,0,0,1,1,1.51,5.57,5.57,0,0,1,.35,2.1A10.69,10.69,0,0,1,100,91a5.08,5.08,0,0,1-1.49,2.43,6.54,6.54,0,0,1-2.46,1.44,9,9,0,0,1-2.75.43,10.08,10.08,0,0,1-3.39-.59,11.49,11.49,0,0,1-3-1.67l2-4.16a11,11,0,0,0,1.95,1.45,4.49,4.49,0,0,0,2.28.6A3,3,0,0,0,94,90.8a2.53,2.53,0,0,0,.74-.35,1.91,1.91,0,0,0,.54-.62,2,2,0,0,0,.2-.91,1.39,1.39,0,0,0-.3-.92,2.49,2.49,0,0,0-.76-.63,4,4,0,0,0-.94-.42l-.89-.29a20.5,20.5,0,0,1-2-.73,5.12,5.12,0,0,1-1.57-1,4,4,0,0,1-1-1.52,6.89,6.89,0,0,1-.35-2.37,7.72,7.72,0,0,1,.47-2.74,6.2,6.2,0,0,1,1.32-2.11,5.82,5.82,0,0,1,2-1.34,6.56,6.56,0,0,1,2.54-.47,10.8,10.8,0,0,1,1.45.11,13.12,13.12,0,0,1,1.51.33,12.52,12.52,0,0,1,1.45.52,9.18,9.18,0,0,1,1.33.67Z"/><path class="cls-1" d="M118.57,74.91V86.08c0,.63,0,1.26,0,1.89a12.47,12.47,0,0,1-.23,1.85,7.55,7.55,0,0,1-.57,1.72,5.85,5.85,0,0,1-1.07,1.54,6.41,6.41,0,0,1-1.3,1,7.59,7.59,0,0,1-1.51.68,9,9,0,0,1-1.63.38,11.27,11.27,0,0,1-3.28,0,8.79,8.79,0,0,1-1.63-.38,7.59,7.59,0,0,1-1.51-.68,6.14,6.14,0,0,1-1.3-1,5.62,5.62,0,0,1-1.07-1.54,7.55,7.55,0,0,1-.57-1.72,12.47,12.47,0,0,1-.23-1.85c0-.63-.05-1.26-.05-1.89V74.91h4.76V85.37c0,.65,0,1.29.08,1.93A5.84,5.84,0,0,0,107.8,89a2.8,2.8,0,0,0,1,1.25,3.68,3.68,0,0,0,3.6,0,2.8,2.8,0,0,0,1-1.25,5.84,5.84,0,0,0,.39-1.74c0-.64.07-1.28.07-1.93V74.91Z"/><path class="cls-1" d="M130.8,74.25a9.77,9.77,0,0,1,3.8.76,10,10,0,0,1,3.25,2.1,10.34,10.34,0,0,1,2.25,3.24,10,10,0,0,1,.84,4.12,12.46,12.46,0,0,1-.75,4.42,10.66,10.66,0,0,1-2.11,3.47,9.35,9.35,0,0,1-3.21,2.26,10.75,10.75,0,0,1-8.14,0,9.35,9.35,0,0,1-3.21-2.26,10.66,10.66,0,0,1-2.11-3.47,12.46,12.46,0,0,1-.75-4.42,10,10,0,0,1,.84-4.12,10.34,10.34,0,0,1,2.25-3.24A10.1,10.1,0,0,1,127,75,9.85,9.85,0,0,1,130.8,74.25Zm0,5a4.75,4.75,0,0,0-2,.43A5.55,5.55,0,0,0,126,82.52a5,5,0,0,0-.41,2,6.7,6.7,0,0,0,.41,2.37,6.12,6.12,0,0,0,1.12,1.87A5.16,5.16,0,0,0,128.79,90a4.71,4.71,0,0,0,4,0,5.16,5.16,0,0,0,1.64-1.23,6.12,6.12,0,0,0,1.12-1.87A6.7,6.7,0,0,0,136,84.5a5,5,0,0,0-.41-2,5.55,5.55,0,0,0-2.76-2.83A4.75,4.75,0,0,0,130.8,79.26Z"/><path class="cls-1" d="M145.17,74.91h4.69l3.72,10.61,3.94-10.61h4.74L165,94.77h-4.77l-1.34-11.43h0l-4.41,11.43h-1.89l-4.21-11.43h0L146.8,94.77h-4.74Z"/><path class="cls-1" d="M171.82,94.77h-4.77V74.91h4.77Z"/><path class="cls-1" d="M181.62,84.34v4h-7v-4Z"/><path class="cls-1" d="M191.76,94.77H187V79.28h-3.93V74.91H195.7v4.37h-3.94Z"/><path class="cls-1" d="M200.66,91.32l-1.26,3.45h-5.06l7-19.86h5.2l6.91,19.86h-5.08l-1.19-3.45ZM204,81.05h-.05l-2,6.32h4Z"/><path class="cls-1" d="M219.75,94.77H215V74.91h4.77Z"/><path class="cls-1" d="M229.09,87.74h0L233,74.91h3.79l3.6,12.83h0l3.45-12.83h5L243,94.77h-4.86L234.9,83.26h-.05l-3.6,11.51h-4.84l-5.47-19.86h5Z"/><path class="cls-1" d="M252.77,91.32l-1.26,3.45h-5.06l7.05-19.86h5.2l6.91,19.86h-5.08l-1.19-3.45Zm3.33-10.27h-.05l-2,6.32h4Z"/><path class="cls-1" d="M267.09,74.91h4.77l8.73,12.14h.05V74.91h4.76V94.77h-4.76L271.91,82.6h-.05V94.77h-4.77Z"/><path class="cls-1" d="M306.92,80a5.48,5.48,0,0,0-1.47-1,4.14,4.14,0,0,0-1.69-.36,2.37,2.37,0,0,0-.69.11,2,2,0,0,0-.66.32,1.87,1.87,0,0,0-.5.51,1.29,1.29,0,0,0-.19.72,1.21,1.21,0,0,0,.22.75,2.05,2.05,0,0,0,.53.53,3.44,3.44,0,0,0,.68.37l.68.25,1.22.39a12.34,12.34,0,0,1,1.78.75,5.69,5.69,0,0,1,1.43,1.07,4.53,4.53,0,0,1,1,1.51,5.57,5.57,0,0,1,.35,2.1,10.69,10.69,0,0,1-.4,2.91,5.08,5.08,0,0,1-1.49,2.43,6.54,6.54,0,0,1-2.46,1.44,9,9,0,0,1-2.75.43,10,10,0,0,1-3.39-.59A11.49,11.49,0,0,1,296,93l2-4.16A11,11,0,0,0,300,90.32a4.49,4.49,0,0,0,2.28.6,3,3,0,0,0,.83-.12,2.65,2.65,0,0,0,.74-.35,1.91,1.91,0,0,0,.54-.62,2,2,0,0,0,.2-.91,1.39,1.39,0,0,0-.3-.92,2.61,2.61,0,0,0-.76-.63,4.16,4.16,0,0,0-.94-.42l-.89-.29a20.5,20.5,0,0,1-2-.73,5.12,5.12,0,0,1-1.57-1,4,4,0,0,1-1-1.52,6.89,6.89,0,0,1-.35-2.37,7.72,7.72,0,0,1,.47-2.74,6.34,6.34,0,0,1,1.31-2.11,5.87,5.87,0,0,1,2-1.34,6.56,6.56,0,0,1,2.54-.47,10.8,10.8,0,0,1,1.45.11,12,12,0,0,1,3,.85,9.72,9.72,0,0,1,1.33.67Z"/><path class="cls-1" d="M316.6,79.28V82.6H322V87H316.6v3.42h5.67v4.38H311.83V74.91h10.44v4.37Z"/><path class="cls-1" d="M341.11,74.91V86.08c0,.63,0,1.26-.05,1.89a12.47,12.47,0,0,1-.23,1.85,7.55,7.55,0,0,1-.57,1.72,5.85,5.85,0,0,1-1.07,1.54,6.14,6.14,0,0,1-1.3,1,7.59,7.59,0,0,1-1.51.68,9,9,0,0,1-1.63.38,11.27,11.27,0,0,1-3.28,0,9,9,0,0,1-1.63-.38,7.59,7.59,0,0,1-1.51-.68,6.14,6.14,0,0,1-1.3-1A5.85,5.85,0,0,1,326,91.54a7.55,7.55,0,0,1-.57-1.72,12.47,12.47,0,0,1-.23-1.85c0-.63-.05-1.26-.05-1.89V74.91h4.77V85.37c0,.65,0,1.29.07,1.93a5.84,5.84,0,0,0,.39,1.74,2.8,2.8,0,0,0,1,1.25,3.68,3.68,0,0,0,3.6,0,2.8,2.8,0,0,0,1-1.25,5.84,5.84,0,0,0,.39-1.74c.05-.64.07-1.28.07-1.93V74.91Z"/><path class="cls-1" d="M359.37,94.77h-5.93l-4.5-7.64h-.05v7.64h-4.76V74.91h7.12a8.55,8.55,0,0,1,2.53.36,5.29,5.29,0,0,1,2,1.1,5.22,5.22,0,0,1,1.34,1.91,7.17,7.17,0,0,1,.48,2.74,7.36,7.36,0,0,1-.25,2,5.55,5.55,0,0,1-.77,1.69,4.72,4.72,0,0,1-1.26,1.26,4.57,4.57,0,0,1-1.73.7Zm-10.48-11h.46a7.67,7.67,0,0,0,1.17-.08,2.87,2.87,0,0,0,1.06-.34,2.07,2.07,0,0,0,.78-.75,2.45,2.45,0,0,0,.3-1.3,2.49,2.49,0,0,0-.3-1.31,2.24,2.24,0,0,0-.78-.75,3.07,3.07,0,0,0-1.06-.34,9.2,9.2,0,0,0-1.17-.08h-.46Z"/><path class="cls-1" d="M365.33,91.32l-1.26,3.45H359l7.05-19.86h5.2l6.91,19.86h-5.08l-1.19-3.45Zm3.33-10.27h-.05l-2,6.32h4Z"/><path class="cls-1" d="M91.86,120.05H88.77V110H86.22V107.2h8.19V110H91.86Z"/><path class="cls-1" d="M97.62,117.82l-.82,2.23H93.53l4.56-12.85h3.37l4.47,12.85h-3.29l-.77-2.23Zm2.16-6.64h0l-1.27,4.08H101Z"/><path class="cls-1" d="M110,120.05h-3.08V107.2H110Z"/><path class="cls-1" d="M116,115.5h0l2.48-8.3H121l2.33,8.3h0l2.23-8.3h3.22L125,120.05h-3.15l-2.07-7.44h0l-2.33,7.44h-3.13l-3.55-12.85H114Z"/><path class="cls-1" d="M131.34,117.82l-.81,2.23h-3.28l4.57-12.85h3.36l4.47,12.85h-3.29l-.77-2.23Zm2.16-6.64h0l-1.28,4.08h2.57Z"/><path class="cls-1" d="M140.61,107.2h3.09l5.65,7.86h0V107.2h3.08v12.85h-3.08l-5.65-7.87h0v7.87h-3.09Z"/><path class="cls-1" d="M157.56,110v2.15H161V115h-3.48v2.21h3.67v2.83h-6.75V107.2h6.75V110Z"/><path class="cls-1" d="M169.65,110.51a3.31,3.31,0,0,0-1-.62,2.78,2.78,0,0,0-1.1-.23,1.5,1.5,0,0,0-.45.07,1.35,1.35,0,0,0-.42.2,1.12,1.12,0,0,0-.32.33.81.81,0,0,0-.13.47.84.84,0,0,0,.14.49,1.62,1.62,0,0,0,.35.34,2.34,2.34,0,0,0,.44.24l.44.16.79.25a8,8,0,0,1,1.15.49,3.76,3.76,0,0,1,.92.69,3,3,0,0,1,.63,1,3.67,3.67,0,0,1,.22,1.35,6.74,6.74,0,0,1-.26,1.89,3.25,3.25,0,0,1-1,1.57,4.09,4.09,0,0,1-1.59.93,5.75,5.75,0,0,1-1.78.28,6.33,6.33,0,0,1-2.2-.38,7.44,7.44,0,0,1-2-1.08l1.32-2.69a7.06,7.06,0,0,0,1.26.93,2.91,2.91,0,0,0,1.48.4,1.89,1.89,0,0,0,.53-.08,1.53,1.53,0,0,0,.48-.23,1.13,1.13,0,0,0,.35-.4,1.22,1.22,0,0,0,.13-.59.92.92,0,0,0-.19-.6,2,2,0,0,0-.49-.41,3.33,3.33,0,0,0-.61-.27l-.58-.19a13.18,13.18,0,0,1-1.31-.46,3.47,3.47,0,0,1-1-.64,2.55,2.55,0,0,1-.65-1,4.4,4.4,0,0,1-.23-1.53,4.86,4.86,0,0,1,.31-1.78,3.93,3.93,0,0,1,.85-1.36,3.59,3.59,0,0,1,1.29-.87,4.35,4.35,0,0,1,1.64-.31,6.28,6.28,0,0,1,.94.08,8,8,0,0,1,1,.21,8.28,8.28,0,0,1,1,.34,6.9,6.9,0,0,1,.86.43Z"/><path class="cls-1" d="M175.91,110v2.15h3.48V115h-3.48v2.21h3.67v2.83h-6.75V107.2h6.75V110Z"/><path class="cls-1" d="M190,120.05h-3.09V107.2H190Z"/><path class="cls-1" d="M192,107.2h3.09l5.64,7.86h0V107.2h3.08v12.85h-3.08l-5.65-7.87h0v7.87H192Z"/><path class="cls-1" d="M214.33,110v2.15h3.38V115h-3.38v5h-3.09V107.2h6.82V110Z"/><path class="cls-1" d="M222.86,120.05h-3.09V107.2h3.09Z"/><path class="cls-1" d="M224.87,107.2H228l5.65,7.86h0V107.2h3.08v12.85h-3.08L228,112.18h0v7.87h-3.09Z"/><path class="cls-1" d="M241.82,117.22h3.7v2.83h-6.78V107.2h3.08Z"/><path class="cls-1" d="M249.55,117.82l-.82,2.23h-3.27L250,107.2h3.37l4.47,12.85h-3.29l-.77-2.23Zm2.15-6.64h0l-1.27,4.08H253Z"/><path class="cls-1" d="M258.82,107.2h3.08l5.65,7.86h0V107.2h3.09v12.85h-3.09l-5.65-7.87h0v7.87h-3.08Z"/><path class="cls-1" d="M272.68,107.2h4.38a5.62,5.62,0,0,1,2.34.5,6.12,6.12,0,0,1,1.91,1.36,6.81,6.81,0,0,1,1.3,7.1,6.71,6.71,0,0,1-1.3,2,6,6,0,0,1-1.92,1.36,5.63,5.63,0,0,1-2.33.49h-4.38Zm3.09,10h.69a4,4,0,0,0,1.31-.21,2.93,2.93,0,0,0,1.09-.65,3,3,0,0,0,.74-1.11,4.43,4.43,0,0,0,.27-1.62,4.23,4.23,0,0,0-.25-1.53,3.09,3.09,0,0,0-.7-1.13,2.89,2.89,0,0,0-1.07-.7,3.74,3.74,0,0,0-1.36-.24h-.72Z"/><path class="cls-2" d="M44.51,91.65l-6.67,10-4.56,18.69H57.7C45.93,109.47,44.51,91.65,44.51,91.65Z"/><path class="cls-3" d="M86,25.92a3,3,0,0,0-1.66-2.68,3,3,0,0,0-5.36,0,3,3,0,0,0,0,5.36,3,3,0,0,0,5.35,0A3,3,0,0,0,86,25.92Z"/><path class="cls-4" d="M79.66,5.15a4.7,4.7,0,0,0-2.24.6A4.7,4.7,0,0,0,78,3.51a2,2,0,1,0-4,0,4.7,4.7,0,0,0,.6,2.24,4.75,4.75,0,0,0-2.25-.6,2,2,0,0,0,0,3.95,4.73,4.73,0,0,0,2.25-.6,4.73,4.73,0,0,0-.6,2.25h0a2,2,0,0,0,4,0,4.73,4.73,0,0,0-.6-2.25,4.7,4.7,0,0,0,2.24.6h0a2,2,0,1,0,0-3.95Z"/><path class="cls-5" d="M60.59,7.38A11.48,11.48,0,0,0,53,5.53l-2.26,3h0c-2.06,2.74-6.08,2.9-6.8,2.9H40.86l-24.08,35-3,4.33h0a30.5,30.5,0,0,0-4.36,9h0a5.87,5.87,0,0,1-2.84,4.31c-3,1.83-6.65,3.41-5,5.54l.7.63h0a6.79,6.79,0,0,1,1.35,1.59,3.61,3.61,0,0,1,.21,1.4h0l.44,9.38s.18,4.47,3.5,5.53h0c4.7,1.29,7.77,2.67,9.29,6.39,1.73,4.21,2.68,8.37,7.6,12.07l.07.06,2.58,13.63h6l4.56-18.69,6.67-10L63.2,32.75c.62-1.94-.07-4.73-.35-5.74,0-.11-.07-.22-.09-.32l0-.09h0a9,9,0,0,1,3.1-8.9C68.82,15,74.48,15,74.48,15,71.14,14.7,64.58,9.88,60.59,7.38Z"/><polygon class="cls-6" points="70.06 45.34 65.85 38.03 59.88 41.48 59.88 34.59 51.45 34.59 51.45 41.48 45.5 38.05 41.29 45.34 47.24 48.77 41.28 52.22 45.49 59.52 51.45 56.08 51.45 62.96 59.88 62.96 59.88 56.07 65.83 59.51 70.05 52.21 64.1 48.78 70.06 45.34"/><path class="cls-7" d="M42.67,94.43l-4.83,7.27-4.56,18.69H49.6C42.27,110.05,42.67,94.43,42.67,94.43Z"/></svg>