<svg id="Layer_1" data-name="Layer 1" xmlns="http://www.w3.org/2000/svg" viewBox="0 0 61.87 19.51"><defs><style>.cls-1{fill:#bcbec0;}.cls-2{fill:#fff;}.cls-3{fill:#d1d3d4;}</style></defs><title>TIS_logo_w</title><path class="cls-1" d="M7.12,14.79,6,16.44l-.75,3.07h4A8.06,8.06,0,0,1,7.12,14.79Z"/><path class="cls-2" d="M15.85,12a.78.78,0,0,0-.24-.16.67.67,0,0,0-.28-.06l-.11,0-.11.05a.34.34,0,0,0-.08.09A.21.21,0,0,0,15,12a.24.24,0,0,0,0,.12l.09.08.11.07.12,0,.2.06.29.12a.84.84,0,0,1,.23.18.72.72,0,0,1,.16.25.86.86,0,0,1,.06.34,1.59,1.59,0,0,1-.07.48.79.79,0,0,1-.24.4,1,1,0,0,1-.41.23,1.42,1.42,0,0,1-.45.08,1.72,1.72,0,0,1-.55-.1,1.89,1.89,0,0,1-.5-.28l.33-.68a2.43,2.43,0,0,0,.32.24.79.79,0,0,0,.37.1l.14,0a.23.23,0,0,0,.12-.06.28.28,0,0,0,.09-.1.33.33,0,0,0,0-.15.2.2,0,0,0-.05-.15.43.43,0,0,0-.12-.11.76.76,0,0,0-.16-.06L15,13l-.33-.12a1,1,0,0,1-.26-.16.74.74,0,0,1-.17-.25,1.07,1.07,0,0,1-.06-.39,1.25,1.25,0,0,1,.08-.45,1,1,0,0,1,.22-.35,1,1,0,0,1,.33-.22,1.07,1.07,0,0,1,.41-.08l.24,0a2.27,2.27,0,0,1,.25.06l.24.08.21.11Z"/><path class="cls-2" d="M19.27,11.11v1.83c0,.11,0,.21,0,.31a1.55,1.55,0,0,1,0,.31,1.52,1.52,0,0,1-.09.28.83.83,0,0,1-.18.25.87.87,0,0,1-.21.17,1.12,1.12,0,0,1-.25.11l-.27.07-.26,0-.27,0-.27-.07a1.12,1.12,0,0,1-.25-.11.87.87,0,0,1-.21-.17,1.05,1.05,0,0,1-.18-.25,1.52,1.52,0,0,1-.09-.28,2.91,2.91,0,0,1,0-.31c0-.1,0-.2,0-.31V11.11h.78v1.72c0,.1,0,.21,0,.31a.88.88,0,0,0,.06.29.53.53,0,0,0,.16.2.45.45,0,0,0,.3.08.43.43,0,0,0,.29-.08.45.45,0,0,0,.16-.2.68.68,0,0,0,.06-.29c0-.1,0-.21,0-.31V11.11Z"/><path class="cls-2" d="M21.28,11a1.5,1.5,0,0,1,.62.13,1.55,1.55,0,0,1,.53.34,1.64,1.64,0,0,1,.37.53,1.69,1.69,0,0,1,.14.68,2.15,2.15,0,0,1-.12.73,1.89,1.89,0,0,1-.35.56,1.41,1.41,0,0,1-.53.37,1.65,1.65,0,0,1-1.33,0,1.41,1.41,0,0,1-.53-.37,1.68,1.68,0,0,1-.34-.56,1.93,1.93,0,0,1-.13-.73,1.69,1.69,0,0,1,.14-.68,1.64,1.64,0,0,1,.37-.53,1.55,1.55,0,0,1,.53-.34A1.51,1.51,0,0,1,21.28,11Zm0,.82a.73.73,0,0,0-.33.08.66.66,0,0,0-.27.19.88.88,0,0,0-.19.27.87.87,0,0,0-.06.32,1.23,1.23,0,0,0,.06.39,1.08,1.08,0,0,0,.19.31.68.68,0,0,0,.27.2.73.73,0,0,0,.33.08.72.72,0,0,0,.32-.08.68.68,0,0,0,.27-.2,1.08,1.08,0,0,0,.19-.31,1.23,1.23,0,0,0,.07-.39.83.83,0,0,0-.26-.59.66.66,0,0,0-.27-.19A.72.72,0,0,0,21.28,11.82Z"/><path class="cls-2" d="M23.63,11.11h.77L25,12.85l.65-1.74h.78l.45,3.26h-.78l-.22-1.88h0l-.72,1.88h-.31l-.69-1.88h0l-.25,1.88h-.78Z"/><path class="cls-2" d="M28,14.37h-.79V11.11H28Z"/><path class="cls-2" d="M29.62,12.66v.65H28.47v-.65Z"/><path class="cls-2" d="M31.28,14.37H30.5V11.83h-.65v-.72h2.08v.72h-.65Z"/><path class="cls-2" d="M32.74,13.8l-.21.57H31.7l1.16-3.26h.85l1.14,3.26H34l-.19-.57Zm.55-1.68h0l-.32,1h.65Z"/><path class="cls-2" d="M35.87,14.37h-.78V11.11h.78Z"/><path class="cls-2" d="M37.4,13.22h0L38,11.11h.63l.59,2.11h0l.57-2.11h.81l-1,3.26h-.8l-.52-1.89h0l-.59,1.89H37l-.9-3.26h.81Z"/><path class="cls-2" d="M41.29,13.8l-.21.57h-.83l1.16-3.26h.85l1.14,3.26h-.84l-.19-.57Zm.55-1.68h0l-.32,1h.65Z"/><path class="cls-2" d="M43.64,11.11h.78l1.44,2h0v-2h.79v3.26h-.79l-1.43-2h0v2h-.78Z"/><path class="cls-2" d="M50.18,12a.91.91,0,0,0-.24-.16.71.71,0,0,0-.28-.06l-.12,0-.1.05a.38.38,0,0,0-.09.09.21.21,0,0,0,0,.12.17.17,0,0,0,0,.12.24.24,0,0,0,.09.08.41.41,0,0,0,.11.07l.11,0,.2.06.29.12a1.08,1.08,0,0,1,.24.18.7.7,0,0,1,.15.25.86.86,0,0,1,.06.34,2,2,0,0,1-.06.48.88.88,0,0,1-.25.4,1,1,0,0,1-.4.23,1.42,1.42,0,0,1-.45.08,1.78,1.78,0,0,1-.56-.1,1.89,1.89,0,0,1-.5-.28l.33-.68a2.43,2.43,0,0,0,.32.24.83.83,0,0,0,.38.1l.13,0a.31.31,0,0,0,.13-.06.39.39,0,0,0,.08-.1.24.24,0,0,0,0-.15.25.25,0,0,0,0-.15.69.69,0,0,0-.13-.11.94.94,0,0,0-.15-.06L49.32,13,49,12.92a1,1,0,0,1-.26-.16.72.72,0,0,1-.16-.25,1.3,1.3,0,0,1,0-.84,1,1,0,0,1,.21-.35,1,1,0,0,1,.33-.22,1.12,1.12,0,0,1,.42-.08l.23,0a1.83,1.83,0,0,1,.25.06l.24.08.22.11Z"/><path class="cls-2" d="M51.77,11.83v.54h.88v.72h-.88v.56h.92v.72H51V11.11h1.71v.72Z"/><path class="cls-2" d="M55.79,11.11v1.83c0,.11,0,.21,0,.31a2.91,2.91,0,0,1,0,.31,1.52,1.52,0,0,1-.09.28.83.83,0,0,1-.18.25.87.87,0,0,1-.21.17,1.12,1.12,0,0,1-.25.11l-.27.07-.27,0-.27,0-.26-.07a1.12,1.12,0,0,1-.25-.11.87.87,0,0,1-.21-.17.83.83,0,0,1-.18-.25,1.52,1.52,0,0,1-.09-.28,1.55,1.55,0,0,1,0-.31c0-.1,0-.2,0-.31V11.11h.78v1.72c0,.1,0,.21,0,.31a.68.68,0,0,0,.06.29.45.45,0,0,0,.16.2.43.43,0,0,0,.29.08.45.45,0,0,0,.3-.08.53.53,0,0,0,.16-.2.88.88,0,0,0,.06-.29c0-.1,0-.21,0-.31V11.11Z"/><path class="cls-2" d="M58.78,14.37h-1l-.74-1.25h0v1.25h-.78V11.11h1.17a1.42,1.42,0,0,1,.42.06,1.06,1.06,0,0,1,.33.18,1,1,0,0,1,.22.31,1.25,1.25,0,0,1,.08.45,1.2,1.2,0,0,1,0,.33.83.83,0,0,1-.12.27,1,1,0,0,1-.21.21.69.69,0,0,1-.28.11Zm-1.72-1.8h.27a.55.55,0,0,0,.18-.06.35.35,0,0,0,.17-.33.36.36,0,0,0,0-.22.34.34,0,0,0-.12-.12.55.55,0,0,0-.18-.06h-.27Z"/><path class="cls-2" d="M59.76,13.8l-.21.57h-.83l1.16-3.26h.86l1.13,3.26H61l-.19-.57Zm.55-1.68h0l-.32,1h.65Z"/><path class="cls-2" d="M14.89,18.52h-.51V16.87H14v-.46H15.3v.46h-.41Z"/><path class="cls-2" d="M15.83,18.15l-.13.37h-.54l.75-2.11h.55l.73,2.11h-.54l-.12-.37Zm.35-1.09h0l-.21.67h.42Z"/><path class="cls-2" d="M17.86,18.52h-.51V16.41h.51Z"/><path class="cls-2" d="M18.85,17.77h0l.41-1.36h.41l.38,1.36h0l.37-1.36H21l-.63,2.11h-.51l-.34-1.22h0l-.38,1.22h-.51L18,16.41h.53Z"/><path class="cls-2" d="M21.37,18.15l-.14.37h-.54l.75-2.11H22l.74,2.11h-.54l-.13-.37Zm.35-1.09h0l-.21.67h.43Z"/><path class="cls-2" d="M22.89,16.41h.5l.93,1.29h0V16.41h.51v2.11h-.51l-.92-1.29h0v1.29h-.5Z"/><path class="cls-2" d="M25.67,16.87v.36h.57v.46h-.57v.36h.6v.47H25.16V16.41h1.11v.46Z"/><path class="cls-2" d="M27.65,17l-.16-.1a.48.48,0,0,0-.18,0h-.07l-.07,0a.12.12,0,0,0-.05.05.11.11,0,0,0,0,.08.19.19,0,0,0,0,.08l.06.05.07,0,.07,0,.13,0,.19.08a.58.58,0,0,1,.15.11.37.37,0,0,1,.1.17.48.48,0,0,1,0,.22,1.1,1.1,0,0,1,0,.31.6.6,0,0,1-.16.26.68.68,0,0,1-.26.15,1,1,0,0,1-.29,0,1,1,0,0,1-.36-.06,1.06,1.06,0,0,1-.33-.18l.22-.44a1.16,1.16,0,0,0,.21.16.48.48,0,0,0,.24.06h.09l.08,0a.18.18,0,0,0,.05-.07.14.14,0,0,0,0-.09.18.18,0,0,0,0-.1.27.27,0,0,0-.08-.07l-.1,0-.09,0-.22-.08a.62.62,0,0,1-.16-.1.39.39,0,0,1-.11-.17.6.6,0,0,1,0-.25.93.93,0,0,1,.05-.29.69.69,0,0,1,.14-.22A.8.8,0,0,1,27,16.4a.76.76,0,0,1,.27,0l.16,0,.16,0a.94.94,0,0,1,.15.06l.14.07Z"/><path class="cls-2" d="M28.68,16.87v.36h.57v.46h-.57v.36h.6v.47H28.17V16.41h1.11v.46Z"/><path class="cls-2" d="M31,18.52h-.5V16.41H31Z"/><path class="cls-2" d="M31.32,16.41h.5l.93,1.29h0V16.41h.51v2.11h-.51l-.92-1.29h0v1.29h-.5Z"/><path class="cls-2" d="M35,16.87v.36h.56v.46H35v.83h-.5V16.41h1.11v.46Z"/><path class="cls-2" d="M36.38,18.52h-.5V16.41h.5Z"/><path class="cls-2" d="M36.71,16.41h.51l.93,1.29h0V16.41h.51v2.11h-.51l-.93-1.29h0v1.29h-.51Z"/><path class="cls-2" d="M39.49,18.05h.61v.47H39V16.41h.5Z"/><path class="cls-2" d="M40.76,18.15l-.13.37h-.54l.75-2.11h.55l.74,2.11h-.54l-.13-.37Zm.36-1.09h0l-.21.67h.42Z"/><path class="cls-2" d="M42.28,16.41h.51l.93,1.29h0V16.41h.51v2.11h-.51l-.93-1.29h0v1.29h-.51Z"/><path class="cls-2" d="M44.56,16.41h.72a1,1,0,0,1,.38.08,1.16,1.16,0,0,1,.31.22,1.33,1.33,0,0,1,.22.34,1.15,1.15,0,0,1,.08.41,1.16,1.16,0,0,1-.08.42,1.12,1.12,0,0,1-.22.33.91.91,0,0,1-.69.31h-.72Zm.5,1.64h.12a.71.71,0,0,0,.21,0,.42.42,0,0,0,.18-.11.47.47,0,0,0,.12-.18.68.68,0,0,0,.05-.27,1,1,0,0,0,0-.25.57.57,0,0,0-.12-.18.66.66,0,0,0-.17-.12.85.85,0,0,0-.23,0h-.12Z"/><path class="cls-3" d="M13.92,4a.51.51,0,0,0-.27-.44.51.51,0,0,0-.44-.27.49.49,0,0,0-.44.27A.51.51,0,0,0,12.5,4a.48.48,0,0,0,.27.44.49.49,0,0,0,.44.27.51.51,0,0,0,.44-.27A.48.48,0,0,0,13.92,4Z"/><path class="cls-2" d="M12.88.59a.82.82,0,0,0-.36.1.78.78,0,0,0,.09-.37.32.32,0,0,0-.64,0,.78.78,0,0,0,.09.37.82.82,0,0,0-.36-.1.33.33,0,0,0-.33.33.32.32,0,0,0,.33.32.69.69,0,0,0,.36-.1.78.78,0,0,0-.09.37h0a.32.32,0,1,0,.64,0,.78.78,0,0,0-.09-.37.69.69,0,0,0,.36.1h0a.32.32,0,0,0,.33-.32A.33.33,0,0,0,12.88.59Z"/><path class="cls-2" d="M9.75,1A1.87,1.87,0,0,0,8.51.66l-.37.49h0A1.5,1.5,0,0,1,7,1.63h-.5l-4,5.75-.49.71h0a5,5,0,0,0-.71,1.48h0a1,1,0,0,1-.47.71c-.49.3-1.09.56-.83.91l.12.1h0a1.09,1.09,0,0,1,.22.26.51.51,0,0,1,0,.23h0l.07,1.54s0,.74.57.91h0c.77.21,1.28.44,1.53,1a3.84,3.84,0,0,0,1.24,2h0l.42,2.24h1L6,16.44l1.1-1.65,3.06-9.67a1.86,1.86,0,0,0-.06-.94s0,0,0,0v0h0a1.45,1.45,0,0,1,.51-1.46A2.41,2.41,0,0,1,12,2.2,8.24,8.24,0,0,1,9.75,1Z"/><polygon class="cls-1" points="11.31 7.19 10.62 5.99 9.64 6.55 9.64 5.42 8.26 5.42 8.26 6.56 7.28 5.99 6.59 7.19 7.56 7.75 6.58 8.32 7.28 9.52 8.26 8.95 8.26 10.08 9.64 10.08 9.64 8.95 10.62 9.51 11.31 8.32 10.33 7.75 11.31 7.19"/><path class="cls-3" d="M6.81,15.24,6,16.44l-.75,3.07H8A8.21,8.21,0,0,1,6.81,15.24Z"/></svg>